<svg xmlns="http://www.w3.org/2000/svg" viewBox="0 0 800 500" role="img" aria-label="Skuratov Coffee">
  <rect width="800" height="500" fill="#141111"/>
  <rect x="34" y="34" width="732" height="432" rx="28" fill="#211b18" stroke="#c9a476" stroke-width="3"/>
  <circle cx="400" cy="206" r="76" fill="none" stroke="#e6c08a" stroke-width="14"/>
  <path d="M326 222h150c0 58-33 100-75 100s-75-42-75-100z" fill="#e6c08a"/>
  <path d="M476 236h28c24 0 38 14 38 34s-16 35-43 35h-31" fill="none" stroke="#e6c08a" stroke-width="16" stroke-linecap="round"/>
  <path d="M354 150c-18-28 18-42 0-70M400 150c-18-28 18-42 0-70M446 150c-18-28 18-42 0-70" fill="none" stroke="#e6c08a" stroke-width="10" stroke-linecap="round"/>
  <text x="400" y="382" text-anchor="middle" font-family="Arial, sans-serif" font-size="54" font-weight="700" fill="#f4dfbf">SKURATOV</text>
  <text x="400" y="426" text-anchor="middle" font-family="Arial, sans-serif" font-size="24" letter-spacing="6" fill="#c9a476">COFFEE</text>
</svg>
